<mxfile host="Electron" modified="2024-07-30T19:41:58.262Z" agent="Mozilla/5.0 (Windows NT 10.0; Win64; x64) AppleWebKit/537.36 (KHTML, like Gecko) draw.io/22.1.16 Chrome/120.0.6099.109 Electron/28.1.0 Safari/537.36" etag="RD2fs2kCu4cLqbyYOXTP" version="22.1.16" type="device">
  <diagram name="Page 1" id="Page-1">
    <mxGraphModel dx="978" dy="648" grid="1" gridSize="10" guides="1" tooltips="1" connect="1" arrows="1" fold="1" page="1" pageScale="1" pageWidth="900" pageHeight="180" math="0" shadow="0">
      <root>
        <mxCell id="0" />
        <mxCell id="1" parent="0" />
        <mxCell id="rXRmDSdP87kDXQ34Pawi-26" value="Liste Chaînée" style="rounded=0;whiteSpace=wrap;html=1;verticalAlign=top;dashed=1;" vertex="1" parent="1">
          <mxGeometry x="89" y="30" width="120" height="110" as="geometry" />
        </mxCell>
        <mxCell id="rXRmDSdP87kDXQ34Pawi-41" style="edgeStyle=orthogonalEdgeStyle;rounded=1;orthogonalLoop=1;jettySize=auto;html=1;exitX=1;exitY=0.5;exitDx=0;exitDy=0;entryX=0.5;entryY=0;entryDx=0;entryDy=0;curved=0;" edge="1" parent="1" source="rXRmDSdP87kDXQ34Pawi-27" target="rXRmDSdP87kDXQ34Pawi-29">
          <mxGeometry relative="1" as="geometry">
            <Array as="points">
              <mxPoint x="225" y="75" />
              <mxPoint x="225" y="10" />
              <mxPoint x="300" y="10" />
            </Array>
          </mxGeometry>
        </mxCell>
        <mxCell id="rXRmDSdP87kDXQ34Pawi-27" value="head" style="rounded=1;whiteSpace=wrap;html=1;fillColor=#dae8fc;strokeColor=#6c8ebf;" vertex="1" parent="1">
          <mxGeometry x="100" y="60" width="100" height="30" as="geometry" />
        </mxCell>
        <mxCell id="rXRmDSdP87kDXQ34Pawi-45" style="edgeStyle=orthogonalEdgeStyle;rounded=1;orthogonalLoop=1;jettySize=auto;html=1;exitX=1;exitY=0.5;exitDx=0;exitDy=0;entryX=0.5;entryY=0;entryDx=0;entryDy=0;curved=0;" edge="1" parent="1" source="rXRmDSdP87kDXQ34Pawi-28" target="rXRmDSdP87kDXQ34Pawi-38">
          <mxGeometry relative="1" as="geometry">
            <Array as="points">
              <mxPoint x="225" y="115" />
              <mxPoint x="225" y="160" />
              <mxPoint x="674" y="160" />
              <mxPoint x="674" y="10" />
              <mxPoint x="750" y="10" />
            </Array>
          </mxGeometry>
        </mxCell>
        <mxCell id="rXRmDSdP87kDXQ34Pawi-28" value="tail" style="rounded=1;whiteSpace=wrap;html=1;fillColor=#dae8fc;strokeColor=#6c8ebf;" vertex="1" parent="1">
          <mxGeometry x="100" y="100" width="100" height="30" as="geometry" />
        </mxCell>
        <mxCell id="rXRmDSdP87kDXQ34Pawi-29" value="Élement" style="rounded=0;whiteSpace=wrap;html=1;verticalAlign=top;dashed=1;" vertex="1" parent="1">
          <mxGeometry x="240" y="30" width="120" height="110" as="geometry" />
        </mxCell>
        <mxCell id="rXRmDSdP87kDXQ34Pawi-30" value="valeur" style="rounded=1;whiteSpace=wrap;html=1;" vertex="1" parent="1">
          <mxGeometry x="251" y="60" width="100" height="30" as="geometry" />
        </mxCell>
        <mxCell id="rXRmDSdP87kDXQ34Pawi-42" style="edgeStyle=orthogonalEdgeStyle;rounded=1;orthogonalLoop=1;jettySize=auto;html=1;exitX=1;exitY=0.5;exitDx=0;exitDy=0;entryX=0.5;entryY=0;entryDx=0;entryDy=0;curved=0;" edge="1" parent="1" source="rXRmDSdP87kDXQ34Pawi-31" target="rXRmDSdP87kDXQ34Pawi-32">
          <mxGeometry relative="1" as="geometry">
            <Array as="points">
              <mxPoint x="375" y="115" />
              <mxPoint x="375" y="10" />
              <mxPoint x="450" y="10" />
            </Array>
          </mxGeometry>
        </mxCell>
        <mxCell id="rXRmDSdP87kDXQ34Pawi-31" value="next" style="rounded=1;whiteSpace=wrap;html=1;fillColor=#dae8fc;strokeColor=#6c8ebf;" vertex="1" parent="1">
          <mxGeometry x="251" y="100" width="100" height="30" as="geometry" />
        </mxCell>
        <mxCell id="rXRmDSdP87kDXQ34Pawi-32" value="Élement" style="rounded=0;whiteSpace=wrap;html=1;verticalAlign=top;dashed=1;" vertex="1" parent="1">
          <mxGeometry x="390" y="30" width="120" height="110" as="geometry" />
        </mxCell>
        <mxCell id="rXRmDSdP87kDXQ34Pawi-33" value="valeur" style="rounded=1;whiteSpace=wrap;html=1;" vertex="1" parent="1">
          <mxGeometry x="401" y="60" width="100" height="30" as="geometry" />
        </mxCell>
        <mxCell id="rXRmDSdP87kDXQ34Pawi-43" style="edgeStyle=orthogonalEdgeStyle;rounded=1;orthogonalLoop=1;jettySize=auto;html=1;exitX=1;exitY=0.5;exitDx=0;exitDy=0;entryX=0.5;entryY=0;entryDx=0;entryDy=0;curved=0;" edge="1" parent="1" source="rXRmDSdP87kDXQ34Pawi-34" target="rXRmDSdP87kDXQ34Pawi-35">
          <mxGeometry relative="1" as="geometry">
            <Array as="points">
              <mxPoint x="524" y="115" />
              <mxPoint x="524" y="10" />
              <mxPoint x="600" y="10" />
            </Array>
          </mxGeometry>
        </mxCell>
        <mxCell id="rXRmDSdP87kDXQ34Pawi-34" value="next" style="rounded=1;whiteSpace=wrap;html=1;fillColor=#dae8fc;strokeColor=#6c8ebf;" vertex="1" parent="1">
          <mxGeometry x="401" y="100" width="100" height="30" as="geometry" />
        </mxCell>
        <mxCell id="rXRmDSdP87kDXQ34Pawi-35" value="Élement" style="rounded=0;whiteSpace=wrap;html=1;verticalAlign=top;dashed=1;" vertex="1" parent="1">
          <mxGeometry x="540" y="30" width="120" height="110" as="geometry" />
        </mxCell>
        <mxCell id="rXRmDSdP87kDXQ34Pawi-36" value="valeur" style="rounded=1;whiteSpace=wrap;html=1;" vertex="1" parent="1">
          <mxGeometry x="551" y="60" width="100" height="30" as="geometry" />
        </mxCell>
        <mxCell id="rXRmDSdP87kDXQ34Pawi-37" value="next" style="rounded=1;whiteSpace=wrap;html=1;fillColor=#dae8fc;strokeColor=#6c8ebf;" vertex="1" parent="1">
          <mxGeometry x="551" y="100" width="100" height="30" as="geometry" />
        </mxCell>
        <mxCell id="rXRmDSdP87kDXQ34Pawi-38" value="Élement" style="rounded=0;whiteSpace=wrap;html=1;verticalAlign=top;dashed=1;" vertex="1" parent="1">
          <mxGeometry x="690" y="30" width="120" height="110" as="geometry" />
        </mxCell>
        <mxCell id="rXRmDSdP87kDXQ34Pawi-39" value="valeur" style="rounded=1;whiteSpace=wrap;html=1;" vertex="1" parent="1">
          <mxGeometry x="701" y="60" width="100" height="30" as="geometry" />
        </mxCell>
        <mxCell id="rXRmDSdP87kDXQ34Pawi-40" value="NULL" style="rounded=1;whiteSpace=wrap;html=1;fillColor=#dae8fc;strokeColor=#6c8ebf;" vertex="1" parent="1">
          <mxGeometry x="701" y="100" width="100" height="30" as="geometry" />
        </mxCell>
        <mxCell id="rXRmDSdP87kDXQ34Pawi-44" style="edgeStyle=orthogonalEdgeStyle;rounded=1;orthogonalLoop=1;jettySize=auto;html=1;exitX=1;exitY=0.5;exitDx=0;exitDy=0;entryX=0.5;entryY=0;entryDx=0;entryDy=0;curved=0;" edge="1" parent="1" source="rXRmDSdP87kDXQ34Pawi-37" target="rXRmDSdP87kDXQ34Pawi-38">
          <mxGeometry relative="1" as="geometry">
            <Array as="points">
              <mxPoint x="674" y="115" />
              <mxPoint x="674" y="10" />
              <mxPoint x="750" y="10" />
            </Array>
          </mxGeometry>
        </mxCell>
      </root>
    </mxGraphModel>
  </diagram>
</mxfile>
